<svg width="22" height="37" viewBox="0 0 22 37" fill="none" xmlns="http://www.w3.org/2000/svg">
<path d="M21.6791 24.4671C21.6791 26.5731 20.919 28.3866 19.3989 29.9076C17.8787 31.4287 15.9041 32.3681 13.4749 32.726V36.3393C13.4749 36.532 13.4062 36.6903 13.2687 36.8142C13.1312 36.9381 12.9555 37 12.7416 37H9.64783C9.44922 37 9.27735 36.9346 9.13221 36.8038C8.98707 36.6731 8.9145 36.5182 8.9145 36.3393V32.726C7.90617 32.6021 6.93221 32.3888 5.99263 32.0859C5.05304 31.7831 4.2777 31.4768 3.66659 31.1671C3.05547 30.8574 2.4902 30.5271 1.97075 30.1761C1.45131 29.8251 1.0961 29.567 0.905127 29.4018C0.714155 29.2366 0.580474 29.1127 0.504085 29.0301C0.244363 28.7411 0.229085 28.4589 0.458252 28.1836L2.81867 25.3962C2.92561 25.2586 3.10131 25.176 3.34575 25.1484C3.57492 25.1209 3.75825 25.1828 3.89575 25.3343L3.94159 25.3756C5.66797 26.7383 7.52422 27.5986 9.51033 27.9565C10.0756 28.0666 10.6409 28.1217 11.2062 28.1217C12.4437 28.1217 13.5322 27.8257 14.4718 27.2338C15.4114 26.6419 15.8812 25.8023 15.8812 24.7148C15.8812 24.3294 15.7666 23.9647 15.5374 23.6205C15.3083 23.2764 15.0523 22.9874 14.7697 22.7533C14.4871 22.5193 14.0402 22.2613 13.4291 21.9791C12.818 21.6969 12.3138 21.4767 11.9166 21.3184C11.5194 21.1601 10.9083 20.9364 10.0833 20.6473C9.48742 20.4271 9.01763 20.255 8.67388 20.1311C8.33013 20.0073 7.86033 19.8249 7.2645 19.584C6.66867 19.3431 6.19124 19.1297 5.83221 18.9439C5.47318 18.7581 5.04159 18.5138 4.53742 18.2109C4.03325 17.9081 3.62457 17.6156 3.31138 17.3334C2.99818 17.0512 2.66589 16.714 2.3145 16.3217C1.96311 15.9294 1.69193 15.5302 1.50096 15.1242C1.30999 14.7181 1.14957 14.2604 1.01971 13.7511C0.889849 13.2418 0.824919 12.705 0.824919 12.1406C0.824919 10.2411 1.57353 8.57552 3.07075 7.14397C4.56797 5.71243 6.51589 4.79018 8.9145 4.37723V0.660714C8.9145 0.481771 8.98707 0.326916 9.13221 0.19615C9.27735 0.0653832 9.44922 0 9.64783 0H12.7416C12.9555 0 13.1312 0.061942 13.2687 0.185826C13.4062 0.30971 13.4749 0.468006 13.4749 0.660714V4.29464C14.3458 4.37723 15.1898 4.53553 16.0072 4.76953C16.8246 5.00353 17.4892 5.2341 18.001 5.46122C18.5128 5.68834 18.9978 5.94643 19.4562 6.23549C19.9145 6.52455 20.2124 6.72414 20.3499 6.83426C20.4874 6.94438 20.602 7.04074 20.6937 7.12333C20.9534 7.37109 20.9916 7.63263 20.8083 7.90792L18.952 10.9224C18.8298 11.1289 18.6541 11.239 18.4249 11.2528C18.211 11.2941 18.0048 11.2459 17.8062 11.1083C17.7603 11.067 17.6496 10.9844 17.4739 10.8605C17.2982 10.7366 17.0003 10.5542 16.5801 10.3133C16.16 10.0725 15.7131 9.85221 15.2395 9.65262C14.7659 9.45303 14.1968 9.27409 13.5322 9.11579C12.8676 8.9575 12.2145 8.87835 11.5728 8.87835C10.1214 8.87835 8.93742 9.17429 8.02075 9.76618C7.10408 10.3581 6.64575 11.122 6.64575 12.058C6.64575 12.4159 6.71068 12.7463 6.84054 13.0491C6.9704 13.3519 7.19575 13.6376 7.51658 13.906C7.83742 14.1744 8.13915 14.4015 8.42179 14.5873C8.70443 14.7732 9.13221 14.9865 9.70513 15.2274C10.278 15.4683 10.7402 15.6541 11.0916 15.7849C11.443 15.9156 11.9777 16.1049 12.6958 16.3527C13.5055 16.628 14.1242 16.8448 14.552 17.0031C14.9798 17.1614 15.5603 17.4023 16.2937 17.7257C17.027 18.0492 17.6037 18.3417 18.0239 18.6032C18.444 18.8648 18.9176 19.2089 19.4447 19.6356C19.9718 20.0623 20.3767 20.4993 20.6593 20.9467C20.9419 21.3941 21.1826 21.9206 21.3812 22.5262C21.5798 23.1319 21.6791 23.7788 21.6791 24.4671Z" fill="white"/>
</svg>
