<svg width="18" height="18" viewBox="0 0 18 18" fill="none" xmlns="http://www.w3.org/2000/svg">
<path d="M5.40881 0.133301H12.7529C15.5507 0.133301 17.8238 2.40647 17.8238 5.20422V12.5483C17.8238 13.8932 17.2896 15.183 16.3386 16.134C15.3876 17.085 14.0978 17.6192 12.7529 17.6192H5.40881C2.61106 17.6192 0.337891 15.3461 0.337891 12.5483V5.20422C0.337891 3.85933 0.872147 2.56952 1.82313 1.61854C2.77411 0.667557 4.06392 0.133301 5.40881 0.133301ZM5.23395 1.88189C4.39919 1.88189 3.59862 2.2135 3.00836 2.80377C2.41809 3.39403 2.08648 4.1946 2.08648 5.02936V12.7232C2.08648 14.463 3.4941 15.8706 5.23395 15.8706H12.9278C13.7625 15.8706 14.5631 15.539 15.1534 14.9488C15.7436 14.3585 16.0752 13.5579 16.0752 12.7232V5.02936C16.0752 3.28951 14.6676 1.88189 12.9278 1.88189H5.23395ZM13.6709 3.19334C13.9608 3.19334 14.2387 3.30848 14.4437 3.51343C14.6487 3.71839 14.7638 3.99636 14.7638 4.28621C14.7638 4.57606 14.6487 4.85403 14.4437 5.05899C14.2387 5.26394 13.9608 5.37908 13.6709 5.37908C13.3811 5.37908 13.1031 5.26394 12.8981 5.05899C12.6932 4.85403 12.578 4.57606 12.578 4.28621C12.578 3.99636 12.6932 3.71839 12.8981 3.51343C13.1031 3.30848 13.3811 3.19334 13.6709 3.19334ZM9.08086 4.50479C10.2403 4.50479 11.3522 4.96535 12.172 5.78516C12.9918 6.60498 13.4523 7.71688 13.4523 8.87627C13.4523 10.0357 12.9918 11.1476 12.172 11.9674C11.3522 12.7872 10.2403 13.2478 9.08086 13.2478C7.92147 13.2478 6.80957 12.7872 5.98975 11.9674C5.16994 11.1476 4.70938 10.0357 4.70938 8.87627C4.70938 7.71688 5.16994 6.60498 5.98975 5.78516C6.80957 4.96535 7.92147 4.50479 9.08086 4.50479ZM9.08086 6.25338C8.38523 6.25338 7.71808 6.52972 7.2262 7.02161C6.73431 7.51349 6.45797 8.18064 6.45797 8.87627C6.45797 9.5719 6.73431 10.239 7.2262 10.7309C7.71808 11.2228 8.38523 11.4992 9.08086 11.4992C9.77649 11.4992 10.4436 11.2228 10.9355 10.7309C11.4274 10.239 11.7038 9.5719 11.7038 8.87627C11.7038 8.18064 11.4274 7.51349 10.9355 7.02161C10.4436 6.52972 9.77649 6.25338 9.08086 6.25338Z" fill="black"/>
</svg>
