<svg width="34" height="34" viewBox="0 0 34 34" fill="none" xmlns="http://www.w3.org/2000/svg">
<path d="M32.87 32.21L28 27.37V8.75L25.7 4.52C25.5304 4.1975 25.2758 3.92748 24.9639 3.73911C24.6519 3.55074 24.2944 3.45118 23.93 3.45118C23.5656 3.45118 23.2081 3.55074 22.8962 3.73911C22.5842 3.92748 22.3297 4.1975 22.16 4.52L20 8.76V19.41L1.71002 1.21C1.57015 1.06897 1.39145 0.972791 1.1967 0.933721C1.00195 0.894651 0.799979 0.914463 0.616535 0.990629C0.433092 1.0668 0.276486 1.19587 0.166685 1.36139C0.0568835 1.52691 -0.00113818 1.72138 1.6917e-05 1.92V10H2.17002V11.6H1.6917e-05V18H2.17002V19.6H1.6917e-05V26.25H2.17002V27.85H1.6917e-05V32.92C1.6917e-05 33.1852 0.105374 33.4396 0.29291 33.6271C0.480446 33.8146 0.7348 33.92 1.00002 33.92H32.16C32.3586 33.9212 32.5531 33.8631 32.7186 33.7533C32.8841 33.6435 33.0132 33.4869 33.0894 33.3035C33.1656 33.12 33.1854 32.9181 33.1463 32.7233C33.1072 32.5286 33.011 32.3499 32.87 32.21V32.21ZM8.00002 26V16.94L17.07 26H8.00002ZM26 28.11H22V25.68H26V28.11ZM26 24.11H22V9.25L23.94 5.48L26 9.26V24.11Z" fill="#ffffff"/>
</svg>
