<svg width="12" height="12" viewBox="0 0 12 12" fill="none" xmlns="http://www.w3.org/2000/svg">
<path fill-rule="evenodd" clip-rule="evenodd" d="M11.9999 11.5C11.9999 11.6326 11.9472 11.7598 11.8535 11.8536C11.7597 11.9473 11.6325 12 11.4999 12H5.4999C5.36729 12 5.24011 11.9473 5.14635 11.8536C5.05258 11.7598 4.9999 11.6326 4.9999 11.5C4.9999 11.3674 5.05258 11.2402 5.14635 11.1465C5.24011 11.0527 5.36729 11 5.4999 11H10.2929L0.145899 0.854021C0.0994111 0.807533 0.062535 0.752344 0.0373759 0.691605C0.0122168 0.630865 -0.000732421 0.565765 -0.000732422 0.500021C-0.000732422 0.434277 0.0122168 0.369177 0.0373759 0.308438C0.062535 0.247698 0.0994111 0.192509 0.145899 0.146021C0.192387 0.0995332 0.247576 0.0626571 0.308316 0.037498C0.369055 0.0123389 0.434155 -0.000610352 0.499899 -0.000610352C0.565643 -0.000610351 0.630743 0.0123389 0.691483 0.037498C0.752222 0.0626571 0.807411 0.0995332 0.853899 0.146021L10.9999 10.293V5.50002C10.9999 5.36741 11.0526 5.24024 11.1463 5.14647C11.2401 5.0527 11.3673 5.00002 11.4999 5.00002C11.6325 5.00002 11.7597 5.0527 11.8535 5.14647C11.9472 5.24024 11.9999 5.36741 11.9999 5.50002V11.5Z" fill="#CBA2FF"/>
</svg>
