<svg width="20" height="16" viewBox="0 0 20 16" fill="none" xmlns="http://www.w3.org/2000/svg">
<path d="M19.1686 2.56988C18.4954 2.87589 17.7698 3.07698 17.0179 3.17315C17.7873 2.70977 18.3818 1.97536 18.6616 1.09232C17.9359 1.52947 17.1315 1.83547 16.2835 2.01033C15.5928 1.25844 14.6223 0.821289 13.5207 0.821289C11.4661 0.821289 9.78747 2.49994 9.78747 4.57202C9.78747 4.86928 9.82244 5.1578 9.88365 5.42883C6.77116 5.27146 3.99965 3.77641 2.15489 1.51198C1.8314 2.06279 1.6478 2.70977 1.6478 3.39172C1.6478 4.69442 2.30352 5.8485 3.3177 6.50422C2.69695 6.50422 2.11992 6.32936 1.61282 6.06707V6.0933C1.61282 7.91184 2.90678 9.43311 4.6204 9.77409C4.07023 9.92465 3.49264 9.9456 2.93301 9.83529C3.17047 10.5806 3.63554 11.2328 4.26282 11.7001C4.89011 12.1674 5.64808 12.4264 6.43018 12.4407C5.10443 13.4902 3.46108 14.0575 1.7702 14.0494C1.47294 14.0494 1.17568 14.0319 0.878418 13.9969C2.53958 15.0636 4.51548 15.6843 6.63127 15.6843C13.5207 15.6843 17.3064 9.96644 17.3064 5.00917C17.3064 4.84306 17.3064 4.68568 17.2977 4.51956C18.0321 3.99499 18.6616 3.33052 19.1686 2.56988Z" fill="black"/>
</svg>
