<svg width="27" height="39" viewBox="0 0 27 39" fill="none" xmlns="http://www.w3.org/2000/svg">
<g clip-path="url(#clip0_1_40)">
<path d="M6.75 39C10.476 39 13.5 36.088 13.5 32.5V26H6.75C3.024 26 0 28.912 0 32.5C0 36.088 3.024 39 6.75 39Z" fill="#0ACF83"/>
<path d="M0 19.5C0 15.912 3.024 13 6.75 13H13.5V26H6.75C3.024 26 0 23.088 0 19.5Z" fill="#A259FF"/>
<path d="M0 6.5C0 2.912 3.024 0 6.75 0H13.5V13H6.75C3.024 13 0 10.088 0 6.5Z" fill="#F24E1E"/>
<path d="M13.5 0H20.25C23.976 0 27 2.912 27 6.5C27 10.088 23.976 13 20.25 13H13.5V0Z" fill="#FF7262"/>
<path d="M27 19.5C27 23.088 23.976 26 20.25 26C16.524 26 13.5 23.088 13.5 19.5C13.5 15.912 16.524 13 20.25 13C23.976 13 27 15.912 27 19.5Z" fill="#1ABCFE"/>
</g>
<defs>
<clipPath id="clip0_1_40">
<rect width="27" height="39" fill="white"/>
</clipPath>
</defs>
</svg>
