<svg width="45" height="44" viewBox="0 0 45 44" fill="none" xmlns="http://www.w3.org/2000/svg">
<path d="M25.1875 1.3169L43.8875 20.0169C44.1709 20.3002 44.372 20.6072 44.491 20.9377C44.61 21.2683 44.6686 21.6225 44.6667 22.0002C44.6667 22.378 44.6072 22.7322 44.4882 23.0627C44.3692 23.3933 44.169 23.7002 43.8875 23.9836L25.1875 42.6836C24.6681 43.203 24.0183 43.4741 23.2382 43.4967C22.4581 43.5194 21.7857 43.2483 21.2209 42.6836C20.6542 42.1641 20.3586 41.5143 20.334 40.7342C20.3095 39.9541 20.5815 39.2817 21.15 38.7169L35.0334 24.8336L3.37087 24.8336C2.56809 24.8336 1.89471 24.5616 1.3507 24.0176C0.806705 23.4736 0.535648 22.8011 0.537537 22.0002C0.537537 21.1975 0.808594 20.5241 1.3507 19.9801C1.89282 19.4361 2.5662 19.165 3.37087 19.1669L35.0334 19.1669L21.15 5.28357C20.6306 4.76413 20.3586 4.10301 20.334 3.30024C20.3095 2.49746 20.5815 1.83635 21.15 1.3169C21.6695 0.750237 22.3306 0.4669 23.1334 0.4669C23.9361 0.4669 24.6209 0.750237 25.1875 1.3169Z" fill="black"/>
</svg>
