<svg width="587" height="157" viewBox="0 0 587 157" fill="none" xmlns="http://www.w3.org/2000/svg">
<path d="M56.1398 62.0775L55.1427 59.2438L44.383 63.0296L55.6117 65.0348L56.1398 62.0775ZM70.4088 70.9394L72.7593 69.0686L70.4088 70.9394ZM72.0611 102.031L69.5437 100.392L69.5389 100.399L69.5341 100.406L72.0611 102.031ZM60.1952 112.094L61.454 114.822L61.4755 114.812L61.4968 114.802L60.1952 112.094ZM0.26506 115.699H-2.73896V118.703H0.26506V115.699ZM0.26506 11.3097V8.30563H-2.73896V11.3097H0.26506ZM58.3928 14.9145L57.1137 17.6326L58.3928 14.9145ZM69.9582 24.6775L67.4213 26.2863L67.4304 26.3005L67.4395 26.3147L69.9582 24.6775ZM69.057 53.2157L71.4028 55.0923L69.057 53.2157ZM17.388 55.1683H14.3839V58.1723H17.388V55.1683ZM51.6337 51.4133L53.5195 53.7516L53.5281 53.7447L51.6337 51.4133ZM51.6337 29.3337L49.6608 31.599L49.6995 31.6328L49.7394 31.6652L51.6337 29.3337ZM17.388 25.2783V22.2743H14.3839V25.2783H17.388ZM54.1871 97.5249L52.2436 95.2343L54.1871 97.5249ZM53.8867 73.643L55.8417 71.3622L53.8867 73.643ZM17.388 69.137V66.1329H14.3839V69.137H17.388ZM17.388 101.731H14.3839V104.735H17.388V101.731ZM55.6117 65.0348C60.4252 65.8943 64.5588 68.4131 68.0584 72.8101L72.7593 69.0686C68.4484 63.6525 63.0693 60.2634 56.6678 59.1203L55.6117 65.0348ZM68.0584 72.8101C71.5451 77.1908 73.2627 82.0903 73.2627 87.6117H79.2707C79.2707 80.7164 77.083 74.5011 72.7593 69.0686L68.0584 72.8101ZM73.2627 87.6117C73.2627 92.357 72.019 96.5904 69.5437 100.392L74.5784 103.67C77.7106 98.86 79.2707 93.4805 79.2707 87.6117H73.2627ZM69.5341 100.406C67.1752 104.076 63.6791 107.086 58.8936 109.387L61.4968 114.802C67.1252 112.096 71.5396 108.397 74.588 103.655L69.5341 100.406ZM58.9363 109.367C54.1965 111.555 48.583 112.695 42.0209 112.695V118.703C49.2773 118.703 55.78 117.441 61.454 114.822L58.9363 109.367ZM42.0209 112.695H0.26506V118.703H42.0209V112.695ZM3.26908 115.699V11.3097H-2.73896V115.699H3.26908ZM0.26506 14.3137H40.0683V8.30563H0.26506V14.3137ZM40.0683 14.3137C46.847 14.3137 52.4968 15.4599 57.1137 17.6326L59.6719 12.1964C54.0751 9.56258 47.5086 8.30563 40.0683 8.30563V14.3137ZM57.1137 17.6326C61.7892 19.8328 65.1699 22.7359 67.4213 26.2863L72.4952 23.0687C69.5396 18.4081 65.21 14.8026 59.6719 12.1964L57.1137 17.6326ZM67.4395 26.3147C69.7106 29.8087 70.8594 33.7407 70.8594 38.1956H76.8675C76.8675 32.6371 75.4128 27.5571 72.4769 23.0404L67.4395 26.3147ZM70.8594 38.1956C70.8594 43.6436 69.419 47.9545 66.7113 51.3391L71.4028 55.0923C75.1036 50.4662 76.8675 44.7637 76.8675 38.1956H70.8594ZM66.7113 51.3391C63.8984 54.8552 60.0839 57.5052 55.1427 59.2438L57.1368 64.9113C63.0101 62.8447 67.8071 59.5868 71.4028 55.0923L66.7113 51.3391ZM17.388 58.1723H38.5663V52.1643H17.388V58.1723ZM38.5663 58.1723C44.586 58.1723 49.7012 56.8309 53.5195 53.7516L49.748 49.0749C47.358 51.0023 43.7615 52.1643 38.5663 52.1643V58.1723ZM53.5281 53.7447C57.5539 50.4737 59.4442 45.8433 59.4442 40.2984H53.4361C53.4361 44.3664 52.1221 47.1459 49.7394 49.0818L53.5281 53.7447ZM59.4442 40.2984C59.4442 34.83 57.538 30.2604 53.5281 27.0023L49.7394 31.6652C52.1381 33.6141 53.4361 36.3542 53.4361 40.2984H59.4442ZM53.6067 27.0685C49.785 23.7398 44.6351 22.2743 38.5663 22.2743V28.2823C43.7124 28.2823 47.2742 29.5204 49.6608 31.599L53.6067 27.0685ZM38.5663 22.2743H17.388V28.2823H38.5663V22.2743ZM14.3839 25.2783V55.1683H20.392V25.2783H14.3839ZM40.5189 104.735C46.7947 104.735 52.1227 103.216 56.1307 99.8155L52.2436 95.2343C49.6428 97.4411 45.8586 98.7265 40.5189 98.7265V104.735ZM56.1307 99.8155C60.216 96.3492 62.1478 91.5457 62.1478 85.8092H56.1398C56.1398 90.0862 54.7672 93.0931 52.2436 95.2343L56.1307 99.8155ZM62.1478 85.8092C62.1478 79.9304 60.088 75.0018 55.8417 71.3622L51.9318 75.9238C54.6949 78.2922 56.1398 81.4744 56.1398 85.8092H62.1478ZM55.8417 71.3622C51.6634 67.7807 46.2522 66.1329 39.9181 66.1329V72.141C45.1995 72.141 49.1007 73.4972 51.9318 75.9238L55.8417 71.3622ZM39.9181 66.1329H17.388V72.141H39.9181V66.1329ZM14.3839 69.137V101.731H20.392V69.137H14.3839ZM17.388 104.735H40.5189V98.7265H17.388V104.735ZM109.594 111.794L108.103 114.402L108.119 114.411L108.135 114.42L109.594 111.794ZM94.7238 96.7739L92.0959 98.2294L92.1007 98.238L92.1055 98.2467L94.7238 96.7739ZM110.044 36.8438L108.603 34.2082L110.044 36.8438ZM153.002 36.8438L154.443 34.2082L153.002 36.8438ZM168.172 51.8639L165.561 53.35L168.172 51.8639ZM168.022 96.6237L165.428 95.1076L168.022 96.6237ZM152.401 111.794L153.825 114.439L153.832 114.435L153.839 114.431L152.401 111.794ZM143.088 99.0269L141.664 96.382L141.65 96.3898L141.635 96.3977L143.088 99.0269ZM152.551 89.5643L149.943 88.0739L152.551 89.5643ZM152.701 59.0735L150.066 60.5164L150.074 60.5298L150.081 60.5432L152.701 59.0735ZM118.906 49.6109L117.453 46.9816L117.438 46.9899L117.423 46.9983L118.906 49.6109ZM110.044 59.0735L112.691 60.4939L112.698 60.4807L112.705 60.4674L110.044 59.0735ZM113.499 94.9715L111.286 97.0034L111.308 97.0269L111.33 97.05L113.499 94.9715ZM130.772 114.047C123.429 114.047 116.878 112.405 111.053 109.168L108.135 114.42C114.926 118.193 122.494 120.055 130.772 120.055V114.047ZM111.084 109.186C105.253 105.854 100.684 101.242 97.342 95.3012L92.1055 98.2467C95.9733 105.123 101.317 110.524 108.103 114.402L111.084 109.186ZM97.3517 95.3185C94.0271 89.3159 92.3206 82.3202 92.3206 74.2438H86.3125C86.3125 83.1902 88.2108 91.2146 92.0959 98.2294L97.3517 95.3185ZM92.3206 74.2438C92.3206 66.2882 94.068 59.3521 97.4847 53.35L92.2633 50.3778C88.27 57.393 86.3125 65.3769 86.3125 74.2438H92.3206ZM97.4847 53.35C100.921 47.3125 105.579 42.7097 111.486 39.4794L108.603 34.2082C101.693 37.9872 96.2365 43.3978 92.2633 50.3778L97.4847 53.35ZM111.486 39.4794C117.416 36.2362 124.073 34.5908 131.523 34.5908V28.5827C123.152 28.5827 115.49 30.442 108.603 34.2082L111.486 39.4794ZM131.523 34.5908C138.973 34.5908 145.63 36.2362 151.56 39.4794L154.443 34.2082C147.556 30.442 139.894 28.5827 131.523 28.5827V34.5908ZM151.56 39.4794C157.467 42.7097 162.125 47.3125 165.561 53.35L170.783 50.3778C166.809 43.3978 161.353 37.9872 154.443 34.2082L151.56 39.4794ZM165.561 53.35C168.978 59.3521 170.725 66.2882 170.725 74.2438H176.733C176.733 65.3769 174.776 57.393 170.783 50.3778L165.561 53.35ZM170.725 74.2438C170.725 82.1853 168.934 89.1105 165.428 95.1076L170.615 98.1398C174.719 91.1195 176.733 83.1248 176.733 74.2438H170.725ZM165.428 95.1076C161.899 101.145 157.091 105.814 150.962 109.157L153.839 114.431C160.929 110.564 166.535 105.12 170.615 98.1398L165.428 95.1076ZM150.977 109.149C144.936 112.402 138.221 114.047 130.772 114.047V120.055C139.144 120.055 146.848 118.196 153.825 114.439L150.977 109.149ZM130.772 105.185C135.679 105.185 140.285 104.008 144.541 101.656L141.635 96.3977C138.281 98.2512 134.677 99.1771 130.772 99.1771V105.185ZM144.513 101.672C148.958 99.2782 152.504 95.7018 155.159 91.0547L149.943 88.0739C147.792 91.838 145.029 94.57 141.664 96.382L144.513 101.672ZM155.159 91.0547C157.877 86.2982 159.16 80.6503 159.16 74.2438H153.152C153.152 79.8534 152.031 84.4191 149.943 88.0739L155.159 91.0547ZM159.16 74.2438C159.16 67.8603 157.936 62.2657 155.321 57.6038L150.081 60.5432C152.072 64.0923 153.152 68.6113 153.152 74.2438H159.16ZM155.336 57.6306C152.789 52.9788 149.346 49.3878 144.992 46.9816L142.086 52.2401C145.342 54.0395 148.008 56.757 150.066 60.5164L155.336 57.6306ZM144.992 46.9816C140.736 44.6295 136.13 43.4526 131.223 43.4526V49.4607C135.127 49.4607 138.732 50.3866 142.086 52.2401L144.992 46.9816ZM131.223 43.4526C126.316 43.4526 121.709 44.6295 117.453 46.9816L120.359 52.2401C123.713 50.3866 127.318 49.4607 131.223 49.4607V43.4526ZM117.423 46.9983C113.161 49.4177 109.822 53.0236 107.383 57.6796L112.705 60.4674C114.672 56.7122 117.242 54.0096 120.389 52.2234L117.423 46.9983ZM107.397 57.6532C104.902 62.3037 103.736 67.8796 103.736 74.2438H109.744C109.744 68.5919 110.781 64.0543 112.691 60.4939L107.397 57.6532ZM103.736 74.2438C103.736 83.6493 106.12 91.3775 111.286 97.0034L115.711 92.9396C111.866 88.7523 109.744 82.6621 109.744 74.2438H103.736ZM111.33 97.05C116.526 102.472 123.079 105.185 130.772 105.185V99.1771C124.647 99.1771 119.684 97.0835 115.668 92.893L111.33 97.05ZM205.376 111.794L203.886 114.402L203.901 114.411L203.917 114.42L205.376 111.794ZM190.506 96.7739L187.878 98.2294L187.883 98.238L187.888 98.2467L190.506 96.7739ZM205.827 36.8438L204.385 34.2082H204.385L205.827 36.8438ZM248.784 36.8438L250.225 34.2082L248.784 36.8438ZM263.954 51.8639L261.344 53.35L263.954 51.8639ZM263.804 96.6237L261.211 95.1076L263.804 96.6237ZM248.183 111.794L249.607 114.439L249.615 114.435L249.622 114.431L248.183 111.794ZM238.871 99.0269L237.447 96.382L237.432 96.3898L237.418 96.3977L238.871 99.0269ZM248.333 89.5643L245.725 88.0739L248.333 89.5643ZM248.484 59.0735L245.849 60.5164L245.856 60.5298L245.864 60.5432L248.484 59.0735ZM214.688 49.6109L213.235 46.9816L213.221 46.9899L213.206 46.9983L214.688 49.6109ZM205.827 59.0735L208.474 60.4939L208.481 60.4807L208.488 60.4674L205.827 59.0735ZM209.281 94.9715L207.069 97.0034L207.09 97.0269L207.112 97.05L209.281 94.9715ZM226.554 114.047C219.211 114.047 212.661 112.405 206.835 109.168L203.917 114.42C210.708 118.193 218.277 120.055 226.554 120.055V114.047ZM206.866 109.186C201.036 105.854 196.466 101.242 193.124 95.3012L187.888 98.2467C191.756 105.123 197.1 110.524 203.886 114.402L206.866 109.186ZM193.134 95.3185C189.809 89.3159 188.103 82.3202 188.103 74.2438H182.095C182.095 83.1902 183.993 91.2146 187.878 98.2294L193.134 95.3185ZM188.103 74.2438C188.103 66.2882 189.85 59.3521 193.267 53.35L188.046 50.3778C184.052 57.393 182.095 65.3769 182.095 74.2438H188.103ZM193.267 53.35C196.704 47.3125 201.361 42.7097 207.268 39.4794L204.385 34.2082C197.475 37.9872 192.019 43.3978 188.046 50.3778L193.267 53.35ZM207.268 39.4794C213.198 36.2362 219.856 34.5908 227.305 34.5908V28.5827C218.934 28.5827 211.272 30.442 204.385 34.2082L207.268 39.4794ZM227.305 34.5908C234.755 34.5908 241.412 36.2362 247.343 39.4794L250.225 34.2082C243.339 30.442 235.677 28.5827 227.305 28.5827V34.5908ZM247.343 39.4794C253.25 42.7097 257.907 47.3125 261.344 53.35L266.565 50.3778C262.592 43.3978 257.136 37.9872 250.225 34.2082L247.343 39.4794ZM261.344 53.35C264.76 59.3521 266.508 66.2882 266.508 74.2438H272.516C272.516 65.3769 270.558 57.393 266.565 50.3778L261.344 53.35ZM266.508 74.2438C266.508 82.1853 264.717 89.1105 261.211 95.1076L266.397 98.1398C270.502 91.1195 272.516 83.1248 272.516 74.2438H266.508ZM261.211 95.1076C257.681 101.145 252.873 105.814 246.745 109.157L249.622 114.431C256.711 110.564 262.317 105.12 266.397 98.1398L261.211 95.1076ZM246.759 109.149C240.719 112.402 234.004 114.047 226.554 114.047V120.055C234.926 120.055 242.63 118.196 249.607 114.439L246.759 109.149ZM226.554 105.185C231.461 105.185 236.068 104.008 240.324 101.656L237.418 96.3977C234.064 98.2512 230.459 99.1771 226.554 99.1771V105.185ZM240.295 101.672C244.74 99.2782 248.286 95.7018 250.942 91.0547L245.725 88.0739C243.574 91.838 240.812 94.57 237.447 96.382L240.295 101.672ZM250.942 91.0547C253.66 86.2982 254.942 80.6503 254.942 74.2438H248.934C248.934 79.8534 247.814 84.4191 245.725 88.0739L250.942 91.0547ZM254.942 74.2438C254.942 67.8603 253.719 62.2657 251.104 57.6038L245.864 60.5432C247.855 64.0923 248.934 68.6113 248.934 74.2438H254.942ZM251.118 57.6306C248.571 52.9788 245.128 49.3878 240.774 46.9816L237.868 52.2401C241.124 54.0395 243.79 56.757 245.849 60.5164L251.118 57.6306ZM240.774 46.9816C236.518 44.6295 231.912 43.4526 227.005 43.4526V49.4607C230.91 49.4607 234.514 50.3866 237.868 52.2401L240.774 46.9816ZM227.005 43.4526C222.098 43.4526 217.492 44.6295 213.235 46.9816L216.141 52.2401C219.495 50.3866 223.1 49.4607 227.005 49.4607V43.4526ZM213.206 46.9983C208.943 49.4177 205.604 53.0236 203.166 57.6796L208.488 60.4674C210.455 56.7122 213.024 54.0096 216.171 52.2234L213.206 46.9983ZM203.18 57.6532C200.684 62.3037 199.518 67.8796 199.518 74.2438H205.526C205.526 68.5919 206.563 64.0543 208.474 60.4939L203.18 57.6532ZM199.518 74.2438C199.518 83.6493 201.902 91.3775 207.069 97.0034L211.494 92.9396C207.648 88.7523 205.526 82.6621 205.526 74.2438H199.518ZM207.112 97.05C212.309 102.472 218.861 105.185 226.554 105.185V99.1771C220.429 99.1771 215.466 97.0835 211.45 92.893L207.112 97.05ZM319.182 74.394L316.972 72.3598L315.097 74.3977L316.976 76.4322L319.182 74.394ZM357.333 115.699V118.703H364.197L359.54 113.661L357.333 115.699ZM334.203 115.699L331.926 117.659L332.825 118.703H334.203V115.699ZM303.562 80.1016L305.838 78.1419L300.558 72.0069V80.1016H303.562ZM303.562 115.699V118.703H306.566V115.699H303.562ZM286.439 115.699H283.435V118.703H286.439V115.699ZM286.439 4.55062V1.5466H283.435V4.55062H286.439ZM303.562 4.55062H306.566V1.5466H303.562V4.55062ZM303.562 69.137H300.558V77.4608L305.873 71.0554L303.562 69.137ZM333.602 32.9386V29.9346H332.191L331.29 31.0202L333.602 32.9386ZM357.333 32.9386L359.544 34.9728L364.181 29.9346H357.333V32.9386ZM316.976 76.4322L355.127 117.737L359.54 113.661L321.389 72.3558L316.976 76.4322ZM357.333 112.695H334.203V118.703H357.333V112.695ZM336.479 113.739L305.838 78.1419L301.285 82.0614L331.926 117.659L336.479 113.739ZM300.558 80.1016V115.699H306.566V80.1016H300.558ZM303.562 112.695H286.439V118.703H303.562V112.695ZM289.443 115.699V4.55062H283.435V115.699H289.443ZM286.439 7.55464H303.562V1.5466H286.439V7.55464ZM300.558 4.55062V69.137H306.566V4.55062H300.558ZM305.873 71.0554L335.913 34.857L331.29 31.0202L301.25 67.2186L305.873 71.0554ZM333.602 35.9426H357.333V29.9346H333.602V35.9426ZM355.123 30.9043L316.972 72.3598L321.393 76.4282L359.544 34.9728L355.123 30.9043ZM370.508 18.8197L372.632 16.6955L370.508 18.8197ZM370.508 3.19881L372.632 5.32298V5.32297L370.508 3.19881ZM385.978 3.19881L383.854 5.32297V5.32298L385.978 3.19881ZM385.978 18.8197L383.854 16.6955L385.978 18.8197ZM386.729 32.9386H389.733V29.9346H386.729V32.9386ZM386.729 115.699V118.703H389.733V115.699H386.729ZM369.607 115.699H366.602V118.703H369.607V115.699ZM369.607 32.9386V29.9346H366.602V32.9386H369.607ZM378.318 18.9699C375.972 18.9699 374.144 18.2081 372.632 16.6955L368.384 20.9439C371.077 23.637 374.456 24.9779 378.318 24.9779V18.9699ZM372.632 16.6955C371.119 15.183 370.357 13.3556 370.357 11.0093H364.349C364.349 14.8712 365.69 18.2507 368.384 20.9439L372.632 16.6955ZM370.357 11.0093C370.357 8.6629 371.119 6.83548 372.632 5.32298L368.384 1.07465C365.69 3.76776 364.349 7.1473 364.349 11.0093H370.357ZM372.632 5.32297C374.144 3.81046 375.972 3.04861 378.318 3.04861V-2.95942C374.456 -2.95942 371.077 -1.61846 368.384 1.07465L372.632 5.32297ZM378.318 3.04861C380.535 3.04861 382.321 3.78992 383.854 5.32297L388.103 1.07465C385.43 -1.59792 382.11 -2.95942 378.318 -2.95942V3.04861ZM383.854 5.32298C385.367 6.83548 386.129 8.6629 386.129 11.0093H392.137C392.137 7.1473 390.796 3.76776 388.103 1.07465L383.854 5.32298ZM386.129 11.0093C386.129 13.3556 385.367 15.183 383.854 16.6955L388.103 20.9439C390.796 18.2507 392.137 14.8712 392.137 11.0093H386.129ZM383.854 16.6955C382.321 18.2286 380.535 18.9699 378.318 18.9699V24.9779C382.11 24.9779 385.43 23.6164 388.103 20.9439L383.854 16.6955ZM383.725 32.9386V115.699H389.733V32.9386H383.725ZM386.729 112.695H369.607V118.703H386.729V112.695ZM372.611 115.699V32.9386H366.602V115.699H372.611ZM369.607 35.9426H386.729V29.9346H369.607V35.9426ZM468.389 35.6422L466.984 38.2971L466.994 38.3027L467.005 38.3082L468.389 35.6422ZM480.556 47.6582L477.92 49.1002V49.1002L480.556 47.6582ZM484.911 115.699V118.703H487.915V115.699H484.911ZM467.939 115.699H464.935V118.703H467.939V115.699ZM462.381 52.4647L460.176 54.5045L460.189 54.5185L460.202 54.5322L462.381 52.4647ZM431.891 52.4647L429.713 50.3957L429.711 50.3971L431.891 52.4647ZM426.333 115.699V118.703H429.337V115.699H426.333ZM409.21 115.699H406.206V118.703H409.21V115.699ZM409.21 32.9386V29.9346H406.206V32.9386H409.21ZM426.333 32.9386H429.337V29.9346H426.333V32.9386ZM426.333 42.4012H423.329V50.7744L428.652 44.3109L426.333 42.4012ZM436.997 34.4406L435.806 31.6827L435.795 31.6877L435.783 31.6928L436.997 34.4406ZM450.966 34.5908C457.048 34.5908 462.362 35.8504 466.984 38.2971L469.795 32.9873C464.203 30.0267 457.902 28.5827 450.966 28.5827V34.5908ZM467.005 38.3082C471.666 40.7281 475.293 44.299 477.92 49.1002L483.191 46.2163C480.01 40.4033 475.527 35.9635 469.774 32.9761L467.005 38.3082ZM477.92 49.1002C480.531 53.8707 481.907 59.7579 481.907 66.884H487.915C487.915 58.9899 486.388 52.06 483.191 46.2163L477.92 49.1002ZM481.907 66.884V115.699H487.915V66.884H481.907ZM484.911 112.695H467.939V118.703H484.911V112.695ZM470.943 115.699V69.4374H464.935V115.699H470.943ZM470.943 69.4374C470.943 61.5516 468.967 55.0422 464.561 50.3971L460.202 54.5322C463.205 57.6976 464.935 62.5033 464.935 69.4374H470.943ZM464.587 50.4248C460.213 45.6967 454.297 43.4526 447.211 43.4526V49.4607C452.942 49.4607 457.14 51.2219 460.176 54.5045L464.587 50.4248ZM447.211 43.4526C440.123 43.4526 434.177 45.6966 429.713 50.3957L434.068 54.5337C437.215 51.2221 441.482 49.4607 447.211 49.4607V43.4526ZM429.711 50.3971C425.304 55.0422 423.329 61.5516 423.329 69.4374H429.337C429.337 62.5033 431.067 57.6976 434.07 54.5322L429.711 50.3971ZM423.329 69.4374V115.699H429.337V69.4374H423.329ZM426.333 112.695H409.21V118.703H426.333V112.695ZM412.214 115.699V32.9386H406.206V115.699H412.214ZM409.21 35.9426H426.333V29.9346H409.21V35.9426ZM423.329 32.9386V42.4012H429.337V32.9386H423.329ZM428.652 44.3109C431.138 41.2922 434.305 38.9146 438.211 37.1883L435.783 31.6928C431.078 33.7717 427.136 36.7012 424.014 40.4915L428.652 44.3109ZM438.188 37.1985C442.21 35.462 446.46 34.5908 450.966 34.5908V28.5827C445.659 28.5827 440.597 29.6141 435.806 31.6827L438.188 37.1985ZM557.07 35.492L555.662 38.1456L555.694 38.1626L555.727 38.1789L557.07 35.492ZM568.786 44.9546L566.367 46.7366L571.79 54.0956V44.9546H568.786ZM568.786 32.9386V29.9346H565.782V32.9386H568.786ZM586.059 32.9386H589.063V29.9346H586.059V32.9386ZM581.252 137.328L578.612 135.896L578.607 135.905L578.602 135.914L581.252 137.328ZM567.284 151.447L565.821 148.823L565.812 148.828L565.803 148.833L567.284 151.447ZM517.717 148.593L519.467 146.151L519.456 146.143L519.445 146.135L517.717 148.593ZM505.101 127.265V124.261H501.744L502.115 127.596L505.101 127.265ZM522.073 127.265L524.949 126.395L524.303 124.261H522.073V127.265ZM530.334 137.629L531.932 135.084L531.924 135.079L531.915 135.074L530.334 137.629ZM562.327 135.376L560.228 133.227L560.215 133.239L560.203 133.251L562.327 135.376ZM568.786 103.233H571.79V94.1583L566.375 101.44L568.786 103.233ZM556.92 113.146L558.328 115.799L558.338 115.794L558.347 115.789L556.92 113.146ZM520.271 111.644L518.675 114.189L518.7 114.204L518.725 114.22L520.271 111.644ZM506.152 96.3233L503.481 97.699L503.494 97.7234L503.507 97.7475L506.152 96.3233ZM506.152 51.8639L503.516 50.4225L503.508 50.4385L503.499 50.4545L506.152 51.8639ZM520.271 36.994L521.803 39.5776L521.81 39.5738L521.816 39.5699L520.271 36.994ZM565.181 59.3739L562.546 60.8168L562.559 60.8407L562.573 60.8643L565.181 59.3739ZM556.019 49.7611L554.513 52.3608L556.019 49.7611ZM531.386 49.7611L532.839 52.3903L532.865 52.3758L532.891 52.3608L531.386 49.7611ZM522.073 59.2237L519.465 57.7333L519.459 57.7436L519.453 57.754L522.073 59.2237ZM522.073 88.9635L519.424 90.3803L519.437 90.404L519.45 90.4275L522.073 88.9635ZM531.386 98.8767L529.83 101.447L529.87 101.471L529.91 101.493L531.386 98.8767ZM556.019 98.8767L557.524 101.476L556.019 98.8767ZM565.181 89.2639L562.558 87.7998L562.552 87.8104L562.546 87.821L565.181 89.2639ZM540.097 34.5908C546.091 34.5908 551.252 35.8053 555.662 38.1456L558.478 32.8384C553.075 29.9717 546.921 28.5827 540.097 28.5827V34.5908ZM555.727 38.1789C560.386 40.5088 563.893 43.3784 566.367 46.7366L571.204 43.1727C568.071 38.9207 563.767 35.4819 558.413 32.8051L555.727 38.1789ZM571.79 44.9546V32.9386H565.782V44.9546H571.79ZM568.786 35.9426H586.059V29.9346H568.786V35.9426ZM583.055 32.9386V117.051H589.063V32.9386H583.055ZM583.055 117.051C583.055 124.228 581.547 130.483 578.612 135.896L583.893 138.76C587.366 132.357 589.063 125.094 589.063 117.051H583.055ZM578.602 135.914C575.677 141.399 571.44 145.691 565.821 148.823L568.746 154.071C575.344 150.393 580.419 145.273 583.903 138.742L578.602 135.914ZM565.803 148.833C560.335 151.932 553.659 153.55 545.655 153.55V159.558C554.473 159.558 562.216 157.771 568.765 154.061L565.803 148.833ZM545.655 153.55C534.92 153.55 526.259 151.016 519.467 146.151L515.968 151.035C523.996 156.785 533.959 159.558 545.655 159.558V153.55ZM519.445 146.135C512.741 141.424 508.992 135.09 508.086 126.933L502.115 127.596C503.211 137.464 507.874 145.348 515.99 151.051L519.445 146.135ZM505.101 130.269H522.073V124.261H505.101V130.269ZM519.198 128.134C520.733 133.212 523.992 137.235 528.753 140.183L531.915 135.074C528.265 132.815 526.017 129.929 524.949 126.395L519.198 128.134ZM528.737 140.173C533.594 143.223 539.275 144.688 545.655 144.688V138.68C540.219 138.68 535.686 137.442 531.932 135.084L528.737 140.173ZM545.655 144.688C553.221 144.688 559.591 142.36 564.451 137.5L560.203 133.251C556.652 136.802 551.907 138.68 545.655 138.68V144.688ZM564.426 137.525C569.483 132.585 571.79 125.593 571.79 117.051H565.782C565.782 124.531 563.783 129.755 560.228 133.227L564.426 137.525ZM571.79 117.051V103.233H565.782V117.051H571.79ZM566.375 101.44C563.774 104.939 560.178 107.972 555.492 110.503L558.347 115.789C563.675 112.912 567.99 109.337 571.196 105.025L566.375 101.44ZM555.512 110.492C551.095 112.836 545.982 114.047 540.097 114.047V120.055C546.829 120.055 552.932 118.663 558.328 115.799L555.512 110.492ZM540.097 114.047C533.416 114.047 527.344 112.384 521.816 109.068L518.725 114.22C525.214 118.113 532.36 120.055 540.097 120.055V114.047ZM521.867 109.099C516.426 105.687 512.07 100.978 508.797 94.8991L503.507 97.7475C507.243 104.686 512.299 110.191 518.675 114.189L521.867 109.099ZM508.822 94.9476C505.662 88.8123 504.049 81.8331 504.049 73.9434H498.041C498.041 82.6759 499.833 90.6167 503.481 97.699L508.822 94.9476ZM504.049 73.9434C504.049 66.0517 505.662 59.1884 508.805 53.2732L503.499 50.4545C499.832 57.3565 498.041 65.2128 498.041 73.9434H504.049ZM508.788 53.3052C512.051 47.3383 516.389 42.7898 521.803 39.5776L518.738 34.4104C512.337 38.2075 507.263 43.5723 503.516 50.4225L508.788 53.3052ZM521.816 39.5699C527.344 36.2536 533.416 34.5908 540.097 34.5908V28.5827C532.36 28.5827 525.214 30.5247 518.725 34.4181L521.816 39.5699ZM571.79 74.2438C571.79 68.1071 570.495 62.618 567.789 57.8835L562.573 60.8643C564.674 64.541 565.782 68.9652 565.782 74.2438H571.79ZM567.816 57.931C565.274 53.2889 561.847 49.6641 557.524 47.1613L554.513 52.3608C557.801 54.264 560.482 57.0477 562.546 60.8168L567.816 57.931ZM557.524 47.1613C553.26 44.693 548.635 43.4526 543.702 43.4526V49.4607C547.581 49.4607 551.167 50.4233 554.513 52.3608L557.524 47.1613ZM543.702 43.4526C538.769 43.4526 534.144 44.693 529.881 47.1613L532.891 52.3608C536.237 50.4233 539.824 49.4607 543.702 49.4607V43.4526ZM529.933 47.1318C525.592 49.5308 522.109 53.1055 519.465 57.7333L524.681 60.7141C526.843 56.9307 529.569 54.197 532.839 52.3903L529.933 47.1318ZM519.453 57.754C516.85 62.3946 515.615 67.8299 515.615 73.9434H521.623C521.623 68.6416 522.69 64.2638 524.693 60.6934L519.453 57.754ZM515.615 73.9434C515.615 80.0616 516.852 85.5704 519.424 90.3803L524.722 87.5466C522.689 83.745 521.623 79.2404 521.623 73.9434H515.615ZM519.45 90.4275C522.079 95.1377 525.532 98.8453 529.83 101.447L532.941 96.3068C529.629 94.302 526.874 91.4008 524.696 87.4994L519.45 90.4275ZM529.91 101.493C534.246 103.939 538.857 105.185 543.702 105.185V99.1771C539.935 99.1771 536.336 98.2201 532.862 96.2603L529.91 101.493ZM543.702 105.185C548.635 105.185 553.26 103.945 557.524 101.476L554.513 96.277C551.167 98.2145 547.581 99.1771 543.702 99.1771V105.185ZM557.524 101.476C561.847 98.9737 565.274 95.3489 567.816 90.7067L562.546 87.821C560.482 91.5901 557.801 94.3738 554.513 96.277L557.524 101.476ZM567.804 90.7279C570.494 85.9085 571.79 80.3825 571.79 74.2438H565.782C565.782 79.5204 564.674 84.0077 562.558 87.7998L567.804 90.7279Z" fill="white"/>
</svg>
