<svg width="40" height="40" viewBox="0 0 40 40" fill="none" xmlns="http://www.w3.org/2000/svg">
<path d="M32.5 25H25V22.5H32.5V25ZM37.5 35H30V32.5H37.5V35ZM35 30H27.5V27.5H35V30Z" fill="black"/>
<path d="M21.2537 25C21.2449 23.9453 20.9636 22.9107 20.4371 21.9968C19.9106 21.0828 19.1567 20.3205 18.2487 19.7837L27.5 3.75L25.3375 2.5L15.8662 18.9075C14.7039 18.6478 13.4949 18.6837 12.35 19.012C11.2051 19.3402 10.1608 19.9502 9.31249 20.7862C4.63249 25.3 4.99499 35.8525 5.01249 36.3C5.02541 36.6228 5.16279 36.928 5.39583 37.1517C5.62886 37.3754 5.93945 37.5003 6.26249 37.5H25.0012C25.2636 37.5 25.5193 37.4175 25.7321 37.2641C25.945 37.1107 26.1041 36.8942 26.1871 36.6453C26.2701 36.3964 26.2726 36.1277 26.1944 35.8773C26.1162 35.6269 25.9611 35.4074 25.7512 35.25C21.3262 31.93 21.2537 25.0675 21.2537 25ZM14.9125 21.2463C15.913 21.2572 16.8707 21.6535 17.5864 22.3527C18.3021 23.0519 18.7206 24.0001 18.755 25C18.755 25.0475 18.7575 25.26 18.7762 25.5863L11.4012 22.3062C11.887 21.9057 12.4476 21.6057 13.0504 21.4237C13.6532 21.2417 14.2862 21.1814 14.9125 21.2463ZM19.3125 35C18.3134 33.9826 17.6765 32.665 17.5 31.25H15C15.0895 32.5803 15.5051 33.8682 16.21 35H13.4312C12.9172 33.3778 12.6044 31.6985 12.5 30H9.99999C10.0806 31.6934 10.3596 33.3716 10.8312 35H7.49999C7.53874 32.705 7.86249 27.635 9.75374 24.3088L19.17 28.4963C19.6224 30.8454 20.5869 33.066 21.995 35H19.3125Z" fill="black"/>
</svg>
