<svg width="20" height="20" viewBox="0 0 20 20" fill="none" xmlns="http://www.w3.org/2000/svg">
<path d="M16.4287 7.14244C16.4287 10.6996 10.0001 19.2853 10.0001 19.2853C10.0001 19.2853 3.57153 10.6996 3.57153 7.14244C3.57153 5.43748 4.24883 3.80234 5.45442 2.59675C6.66001 1.39116 8.29514 0.713867 10.0001 0.713867C11.7051 0.713867 13.3402 1.39116 14.5458 2.59675C15.7514 3.80234 16.4287 5.43748 16.4287 7.14244Z" stroke="#7D7C7C" stroke-width="1.42857" stroke-linecap="round" stroke-linejoin="round"/>
<path d="M10 9.28571C11.1835 9.28571 12.1429 8.32632 12.1429 7.14286C12.1429 5.95939 11.1835 5 10 5C8.81657 5 7.85718 5.95939 7.85718 7.14286C7.85718 8.32632 8.81657 9.28571 10 9.28571Z" stroke="#7D7C7C" stroke-width="1.42857" stroke-linecap="round" stroke-linejoin="round"/>
</svg>
