<svg width="22" height="21" viewBox="0 0 22 21" fill="none" xmlns="http://www.w3.org/2000/svg">
<path d="M8.66665 20.1665H3.99998C3.66943 20.1665 3.39215 20.0505 3.16815 19.8185C2.94415 19.5865 2.83254 19.2998 2.83332 18.9582V10.4999H0.849984C0.577761 10.4999 0.393039 10.369 0.295817 10.1072C0.198595 9.84536 0.256928 9.62383 0.470817 9.44258L10.2125 0.34987C10.4264 0.128342 10.6889 0.0175781 11 0.0175781C11.3111 0.0175781 11.5736 0.128342 11.7875 0.34987L15.6667 3.97487V2.04154C15.6667 1.69918 15.7787 1.41199 16.0027 1.17999C16.2267 0.947995 16.5035 0.832398 16.8333 0.833203H18C18.3305 0.833203 18.6078 0.949203 18.8318 1.1812C19.0558 1.4132 19.1674 1.69998 19.1667 2.04154V7.23737L21.5292 9.44258C21.743 9.62383 21.8014 9.84536 21.7041 10.1072C21.6069 10.369 21.4222 10.4999 21.15 10.4999H19.1667V18.9582C19.1667 19.3006 19.0547 19.5877 18.8307 19.8197C18.6067 20.0517 18.3298 20.1673 18 20.1665H13.3333V14.1249C13.3333 13.7825 13.2213 13.4953 12.9973 13.2633C12.7733 13.0313 12.4964 12.9157 12.1667 12.9165H9.83332C9.50276 12.9165 9.22548 13.0325 9.00148 13.2645C8.77748 13.4965 8.66587 13.7833 8.66665 14.1249V20.1665ZM8.66665 8.11341H13.3333C13.3333 7.46897 13.1 6.94012 12.6333 6.52687C12.1667 6.11362 11.6222 5.9074 11 5.9082C10.3778 5.9082 9.83332 6.11483 9.36665 6.52808C8.89999 6.94133 8.66665 7.46977 8.66665 8.11341Z" fill="white"/>
</svg>
