<svg width="23" height="25" viewBox="0 0 23 25" fill="none" xmlns="http://www.w3.org/2000/svg">
<path d="M2.5 24.5L22.5 4.4375V24.5H2.5ZM17.5 22H20V10.5L17.5 13V22ZM4.8125 9.25L3.1875 7.625C3.97917 6.83333 4.85417 6.25 5.8125 5.875C6.77083 5.5 7.77083 5.3125 8.8125 5.3125C9.85417 5.3125 10.8542 5.5 11.8125 5.875C12.7708 6.25 13.6458 6.83333 14.4375 7.625L12.8125 9.25C12.25 8.6875 11.625 8.26583 10.9375 7.985C10.25 7.70417 9.54167 7.56333 8.8125 7.5625C8.08333 7.5625 7.375 7.70333 6.6875 7.985C6 8.26667 5.375 8.68833 4.8125 9.25ZM1.625 6L0 4.4375C1.22917 3.20833 2.60417 2.28667 4.125 1.6725C5.64583 1.05833 7.20833 0.750833 8.8125 0.75C10.4167 0.75 11.9896 1.0575 13.5312 1.6725C15.0729 2.2875 16.4583 3.20917 17.6875 4.4375L16.0625 6C15.0625 5 13.9321 4.26042 12.6713 3.78125C11.4104 3.30208 10.1242 3.0625 8.8125 3.0625C7.5 3.0625 6.22375 3.30208 4.98375 3.78125C3.74375 4.26042 2.62417 5 1.625 6ZM8.8125 13.25L6.40625 10.8438C6.73958 10.5104 7.11458 10.255 7.53125 10.0775C7.94792 9.9 8.375 9.81167 8.8125 9.8125C9.25 9.8125 9.67167 9.89583 10.0775 10.0625C10.4833 10.2292 10.8638 10.4896 11.2188 10.8438L8.8125 13.25Z" fill="black"/>
</svg>
