<svg width="16" height="16" viewBox="0 0 16 16" fill="none" xmlns="http://www.w3.org/2000/svg">
<path d="M0 8C0 5.87827 0.842854 3.84344 2.34315 2.34315C3.84344 0.842854 5.87827 0 8 0C10.1217 0 12.1566 0.842854 13.6569 2.34315C15.1571 3.84344 16 5.87827 16 8C16 10.1217 15.1571 12.1566 13.6569 13.6569C12.1566 15.1571 10.1217 16 8 16C5.87827 16 3.84344 15.1571 2.34315 13.6569C0.842854 12.1566 0 10.1217 0 8ZM7.5 11.5C7.5 11.6326 7.55268 11.7598 7.64645 11.8536C7.74021 11.9473 7.86739 12 8 12C8.13261 12 8.25979 11.9473 8.35355 11.8536C8.44732 11.7598 8.5 11.6326 8.5 11.5V5.707L10.646 7.854C10.7399 7.94789 10.8672 8.00063 11 8.00063C11.1328 8.00063 11.2601 7.94789 11.354 7.854C11.4479 7.76011 11.5006 7.63278 11.5006 7.5C11.5006 7.36722 11.4479 7.23989 11.354 7.146L8.354 4.146C8.30755 4.09944 8.25238 4.06249 8.19163 4.03729C8.13089 4.01208 8.06577 3.99911 8 3.99911C7.93423 3.99911 7.86911 4.01208 7.80837 4.03729C7.74762 4.06249 7.69245 4.09944 7.646 4.146L4.646 7.146C4.55211 7.23989 4.49937 7.36722 4.49937 7.5C4.49937 7.63278 4.55211 7.76011 4.646 7.854C4.73989 7.94789 4.86722 8.00063 5 8.00063C5.13278 8.00063 5.26011 7.94789 5.354 7.854L7.5 5.707V11.5Z" fill="black"/>
</svg>
