<svg width="32" height="25" viewBox="0 0 32 25" fill="none" xmlns="http://www.w3.org/2000/svg">
<path d="M27.0895 2.98914C25.0495 2.06914 22.8628 1.38914 20.5762 1.00247C20.5558 0.998559 20.5347 1.00108 20.5158 1.00968C20.497 1.01828 20.4812 1.03253 20.4708 1.05047C20.1908 1.54247 19.8788 2.1838 19.6602 2.69047C17.2349 2.32812 14.7694 2.32812 12.3442 2.69047C12.1006 2.12895 11.8259 1.58143 11.5215 1.05047C11.5112 1.03231 11.4956 1.01774 11.4767 1.00868C11.4579 0.999629 11.4368 0.996531 11.4162 0.999802C9.13082 1.38647 6.94415 2.06647 4.90282 2.9878C4.88526 2.99517 4.87037 3.00773 4.86015 3.0238C0.710819 9.1238 -0.426514 15.0731 0.132153 20.9478C0.133707 20.9622 0.138173 20.9761 0.145279 20.9887C0.152385 21.0013 0.161982 21.0124 0.173486 21.0211C2.59534 22.7844 5.2966 24.1276 8.16415 24.9945C8.18414 25.0006 8.20552 25.0006 8.2255 24.9944C8.24548 24.9882 8.26313 24.9762 8.27615 24.9598C8.89321 24.1346 9.44002 23.2591 9.91082 22.3425C9.91735 22.3299 9.92112 22.3161 9.92186 22.302C9.92261 22.2879 9.92031 22.2738 9.91512 22.2607C9.90994 22.2475 9.90199 22.2356 9.89182 22.2258C9.88164 22.216 9.86948 22.2085 9.85615 22.2038C8.99483 21.8794 8.16027 21.488 7.36015 21.0331C7.34578 21.0249 7.33366 21.0133 7.3249 20.9992C7.31613 20.9852 7.31099 20.9692 7.30993 20.9527C7.30887 20.9362 7.31193 20.9196 7.31884 20.9046C7.32574 20.8895 7.33627 20.8764 7.34949 20.8665C7.51749 20.7425 7.68549 20.6131 7.84549 20.4838C7.85989 20.4722 7.87724 20.4648 7.8956 20.4624C7.91396 20.4601 7.93262 20.4628 7.94949 20.4705C13.1855 22.8225 18.8562 22.8225 24.0308 20.4705C24.0477 20.4624 24.0666 20.4592 24.0852 20.4614C24.1038 20.4635 24.1215 20.4708 24.1362 20.4825C24.2962 20.6131 24.4628 20.7425 24.6322 20.8665C24.6455 20.8762 24.6562 20.8892 24.6633 20.9041C24.6704 20.919 24.6738 20.9354 24.673 20.952C24.6722 20.9685 24.6673 20.9845 24.6588 20.9987C24.6503 21.0129 24.6384 21.0247 24.6242 21.0331C23.8268 21.4918 22.9975 21.8798 22.1268 22.2025C22.1134 22.2073 22.1013 22.215 22.0911 22.2249C22.0809 22.2348 22.073 22.2468 22.0678 22.2601C22.0626 22.2733 22.0603 22.2875 22.0611 22.3018C22.0618 22.316 22.0656 22.3298 22.0722 22.3425C22.5522 23.2585 23.1015 24.1305 23.7055 24.9585C23.718 24.9755 23.7355 24.9882 23.7556 24.9948C23.7756 25.0015 23.7972 25.0019 23.8175 24.9958C26.69 24.1313 29.3956 22.7875 31.8202 21.0211C31.832 21.0129 31.8419 21.0022 31.8493 20.9897C31.8566 20.9773 31.8612 20.9635 31.8628 20.9491C32.5295 14.1571 30.7455 8.2558 27.1308 3.02647C27.122 3.00947 27.1073 2.99623 27.0895 2.98914ZM10.6935 17.3705C9.11749 17.3705 7.81749 15.9451 7.81749 14.1971C7.81749 12.4478 9.09215 11.0238 10.6935 11.0238C12.3068 11.0238 13.5948 12.4598 13.5695 14.1971C13.5695 15.9465 12.2948 17.3705 10.6935 17.3705ZM21.3268 17.3705C19.7495 17.3705 18.4508 15.9451 18.4508 14.1971C18.4508 12.4478 19.7242 11.0238 21.3268 11.0238C22.9402 11.0238 24.2282 12.4598 24.2028 14.1971C24.2028 15.9465 22.9415 17.3705 21.3268 17.3705Z" fill="white"/>
</svg>
