<svg width="18" height="18" viewBox="0 0 18 18" fill="none" xmlns="http://www.w3.org/2000/svg">
<path d="M11.7417 6.37508L7.80001 10.3251L6.25834 8.77508C6.10142 8.61816 5.8886 8.53 5.66668 8.53C5.44476 8.53 5.23193 8.61816 5.07501 8.77508C4.91809 8.932 4.82993 9.14483 4.82993 9.36675C4.82993 9.47663 4.85158 9.58544 4.89363 9.68696C4.93568 9.78847 4.99731 9.88072 5.07501 9.95841L7.20834 12.0917C7.28581 12.1699 7.37798 12.2318 7.47953 12.2742C7.58108 12.3165 7.69 12.3382 7.80001 12.3382C7.91002 12.3382 8.01894 12.3165 8.12049 12.2742C8.22204 12.2318 8.31421 12.1699 8.39168 12.0917L12.925 7.55841C13.0027 7.48072 13.0643 7.38847 13.1064 7.28696C13.1484 7.18544 13.1701 7.07663 13.1701 6.96675C13.1701 6.85687 13.1484 6.74806 13.1064 6.64654C13.0643 6.54502 13.0027 6.45278 12.925 6.37508C12.8473 6.29738 12.7551 6.23575 12.6536 6.1937C12.552 6.15165 12.4432 6.13 12.3333 6.13C12.2235 6.13 12.1147 6.15165 12.0131 6.1937C11.9116 6.23575 11.8194 6.29738 11.7417 6.37508ZM9.00001 0.666748C7.90566 0.666748 6.82203 0.882296 5.81098 1.30109C4.79993 1.71987 3.88128 2.3337 3.10745 3.10752C1.54465 4.67033 0.666677 6.78994 0.666677 9.00008C0.659392 10.9244 1.32567 12.7905 2.55001 14.2751L0.883344 15.9417C0.767712 16.0589 0.689382 16.2077 0.658237 16.3694C0.627092 16.5311 0.644528 16.6983 0.708344 16.8501C0.777559 17 0.889764 17.126 1.03072 17.2121C1.17167 17.2981 1.33501 17.3404 1.50001 17.3334H9.00001C11.2101 17.3334 13.3298 16.4554 14.8926 14.8926C16.4554 13.3298 17.3333 11.2102 17.3333 9.00008C17.3333 6.78994 16.4554 4.67033 14.8926 3.10752C13.3298 1.54472 11.2101 0.666748 9.00001 0.666748ZM9.00001 15.6667H3.50834L4.28334 14.8917C4.43855 14.7356 4.52567 14.5244 4.52567 14.3042C4.52567 14.0841 4.43855 13.8729 4.28334 13.7167C3.19217 12.6268 2.51266 11.1922 2.36059 9.65741C2.20852 8.12262 2.5933 6.58259 3.44937 5.29968C4.30544 4.01678 5.57984 3.07038 7.05544 2.62173C8.53104 2.17307 10.1166 2.24992 11.5419 2.83918C12.9672 3.42843 14.1441 4.49364 14.872 5.85332C15.6 7.213 15.8341 8.78303 15.5343 10.2959C15.2345 11.8088 14.4194 13.171 13.228 14.1503C12.0365 15.1296 10.5423 15.6655 9.00001 15.6667Z" fill="#675F5F"/>
</svg>
