<svg width="12" height="12" viewBox="0 0 12 12" fill="none" xmlns="http://www.w3.org/2000/svg">
<path d="M5.25 10.25C6.35936 10.2498 7.43675 9.87839 8.31063 9.195L11.0581 11.9425L11.9419 11.0588L9.19438 8.31125C9.87813 7.43729 10.2497 6.35965 10.25 5.25C10.25 2.49313 8.00688 0.25 5.25 0.25C2.49313 0.25 0.25 2.49313 0.25 5.25C0.25 8.00688 2.49313 10.25 5.25 10.25ZM5.25 1.5C7.31812 1.5 9 3.18187 9 5.25C9 7.31812 7.31812 9 5.25 9C3.18187 9 1.5 7.31812 1.5 5.25C1.5 3.18187 3.18187 1.5 5.25 1.5Z" fill="black"/>
</svg>
