<svg width="27" height="20" viewBox="0 0 27 20" fill="none" xmlns="http://www.w3.org/2000/svg">
<path d="M24.6875 3.875H3.4375C3.15571 3.875 2.88546 3.78281 2.6862 3.61872C2.48694 3.45462 2.375 3.23206 2.375 3C2.375 2.76794 2.48694 2.54538 2.6862 2.38128C2.88546 2.21719 3.15571 2.125 3.4375 2.125H21.5C21.7818 2.125 22.052 2.03281 22.2513 1.86872C22.4506 1.70462 22.5625 1.48206 22.5625 1.25C22.5625 1.01794 22.4506 0.795376 22.2513 0.631282C22.052 0.467187 21.7818 0.375 21.5 0.375H3.4375C2.5932 0.377879 1.78448 0.655365 1.18746 1.14703C0.590444 1.63869 0.253496 2.30469 0.25 3V17C0.253496 17.6953 0.590444 18.3613 1.18746 18.853C1.78448 19.3446 2.5932 19.6221 3.4375 19.625H24.6875C25.2511 19.625 25.7916 19.4406 26.1901 19.1124C26.5886 18.7842 26.8125 18.3391 26.8125 17.875V5.625C26.8125 5.16087 26.5886 4.71575 26.1901 4.38756C25.7916 4.05937 25.2511 3.875 24.6875 3.875ZM19.9062 13.0625C19.591 13.0625 19.2829 12.9855 19.0208 12.8413C18.7587 12.6971 18.5544 12.4921 18.4338 12.2523C18.3132 12.0124 18.2816 11.7485 18.3431 11.4939C18.4046 11.2393 18.5564 11.0055 18.7793 10.8219C19.0022 10.6384 19.2862 10.5134 19.5953 10.4627C19.9045 10.4121 20.2249 10.4381 20.5162 10.5374C20.8074 10.6367 21.0563 10.805 21.2314 11.0208C21.4065 11.2367 21.5 11.4904 21.5 11.75C21.5 12.0981 21.3321 12.4319 21.0332 12.6781C20.7343 12.9242 20.3289 13.0625 19.9062 13.0625Z" fill="black"/>
</svg>
